<svg xmlns="http://www.w3.org/2000/svg" viewBox="0 0 64 64" role="img" aria-label="Hy3">
  <rect width="64" height="64" rx="12" fill="#17202a"/>
  <path d="M16 18h8v11h16V18h8v28h-8V35H24v11h-8V18Z" fill="#ffffff"/>
  <path d="M45 42c4.2 0 7-2.3 7-5.8 0-2.3-1.2-3.9-3.5-4.7 1.9-.8 2.9-2.2 2.9-4.2 0-3.2-2.6-5.3-6.5-5.3-2.4 0-4.6.7-6.4 2.1l2.2 4.1c1.1-.8 2.3-1.2 3.5-1.2 1.3 0 2.1.6 2.1 1.6 0 1.1-.9 1.7-2.6 1.7h-2.1v4.1H45c1.7 0 2.7.6 2.7 1.8 0 1.1-1 1.8-2.8 1.8-1.6 0-3.2-.5-4.6-1.5l-2.2 4.1c1.8 1.6 4.2 2.4 6.9 2.4Z" fill="#5dc493"/>
</svg>
