<svg xmlns="http://www.w3.org/2000/svg" width="960" height="540" viewBox="0 0 960 540">
  <defs>
    <linearGradient id="headerGrad" x1="0" y1="0" x2="1" y2="0">
      <stop offset="0%" stop-color="#1e293b"/>
      <stop offset="100%" stop-color="#334155"/>
    </linearGradient>
  </defs>
  <rect width="960" height="540" fill="#f1f5f9" rx="12"/>
  <rect x="20" y="20" width="920" height="500" rx="10" fill="#ffffff" stroke="#e2e8f0" stroke-width="1.5"/>
  <rect x="20" y="20" width="920" height="56" rx="10" fill="url(#headerGrad)"/>
  <rect x="20" y="66" width="920" height="10" fill="url(#headerGrad)"/>
  <text x="40" y="54" font-family="system-ui, -apple-system, sans-serif" font-size="22" font-weight="700" fill="#ffffff">Continue + Hy3</text>
  <rect x="740" y="34" width="180" height="28" rx="14" fill="#22c55e"/>
  <text x="830" y="53" text-anchor="middle" font-family="monospace" font-size="13" font-weight="600" fill="#ffffff">&#9679; IDE Ready</text>
  <rect x="40" y="86" width="250" height="420" rx="8" fill="#f8fafc" stroke="#e2e8f0" stroke-width="1"/>
  <text x="165" y="112" text-anchor="middle" font-family="system-ui, sans-serif" font-size="14" font-weight="700" fill="#475569">Setup Flow</text>
  <rect x="60" y="130" width="210" height="36" rx="6" fill="#dbeafe" stroke="#3b82f6" stroke-width="1.5"/>
  <text x="165" y="153" text-anchor="middle" font-family="system-ui, sans-serif" font-size="12" font-weight="600" fill="#1e40af">1. Install Continue Plugin</text>
  <polygon points="165,170 155,182 175,182" fill="#94a3b8"/>
  <rect x="60" y="190" width="210" height="36" rx="6" fill="#dbeafe" stroke="#3b82f6" stroke-width="1.5"/>
  <text x="165" y="213" text-anchor="middle" font-family="system-ui, sans-serif" font-size="12" font-weight="600" fill="#1e40af">2. Edit config.json (OpenAI)</text>
  <polygon points="165,230 155,242 175,242" fill="#94a3b8"/>
  <rect x="60" y="250" width="210" height="36" rx="6" fill="#dbeafe" stroke="#3b82f6" stroke-width="1.5"/>
  <text x="165" y="273" text-anchor="middle" font-family="system-ui, sans-serif" font-size="12" font-weight="600" fill="#1e40af">3. Set apiBase + apiKey + model</text>
  <polygon points="165,290 155,302 175,302" fill="#94a3b8"/>
  <rect x="60" y="310" width="210" height="36" rx="6" fill="#dcfce7" stroke="#22c55e" stroke-width="1.5"/>
  <text x="165" y="333" text-anchor="middle" font-family="system-ui, sans-serif" font-size="12" font-weight="600" fill="#166534">4. /review Slash Command</text>
  <polygon points="165,350 155,362 175,362" fill="#94a3b8"/>
  <rect x="60" y="370" width="210" height="36" rx="6" fill="#dcfce7" stroke="#22c55e" stroke-width="1.5"/>
  <text x="165" y="393" text-anchor="middle" font-family="system-ui, sans-serif" font-size="12" font-weight="600" fill="#166534">5. @file Context-Aware Chat</text>
  <rect x="310" y="86" width="610" height="420" rx="8" fill="#0d1117" stroke="#30363d" stroke-width="1"/>
  <circle cx="340" cy="108" r="6" fill="#ff5f56"/>
  <circle cx="362" cy="108" r="6" fill="#ffbd2e"/>
  <circle cx="384" cy="108" r="6" fill="#27c93f"/>
  <text x="610" y="114" text-anchor="middle" font-family="system-ui, sans-serif" font-size="11" fill="#8b949e">Continue Chat</text>
  <text x="330" y="148" font-family="monospace" font-size="13" fill="#58a6ff">&gt; /review</text>
  <text x="330" y="168" font-family="monospace" font-size="13" fill="#8b949e">────────────────────────</text>
  <text x="330" y="192" font-family="monospace" font-size="13" fill="#7ee787">&#9654; Hy3 analyzing current file...</text>
  <text x="330" y="216" font-family="monospace" font-size="13" fill="#e6edf3">===== 代码审查报告 =====</text>
  <text x="330" y="240" font-family="monospace" font-size="13" fill="#e6edf3">总体评分: 4.2/5</text>
  <text x="330" y="268" font-family="monospace" font-size="13" fill="#ffa657">【Bug 风险】</text>
  <text x="362" y="288" font-family="monospace" font-size="13" fill="#e6edf3">L23: input_data 可能为 None</text>
  <text x="330" y="312" font-family="monospace" font-size="13" fill="#ffa657">【安全】</text>
  <text x="362" y="332" font-family="monospace" font-size="13" fill="#e6edf3">L45: SQL 拼接 → 改用参数化查询</text>
  <text x="330" y="356" font-family="monospace" font-size="13" fill="#ffa657">【性能】</text>
  <text x="362" y="376" font-family="monospace" font-size="13" fill="#e6edf3">L78: 循环内重复 len() 调用</text>
  <text x="330" y="400" font-family="monospace" font-size="13" fill="#e6edf3">[...Continue reviewing...]</text>
  <rect x="40" y="496" width="880" height="24" rx="4" fill="#f1f5f9"/>
  <text x="165" y="512" text-anchor="middle" font-family="monospace" font-size="11" fill="#64748b">https://tokenhub.tencentmaas.com/v1</text>
  <text x="480" y="512" text-anchor="middle" font-family="monospace" font-size="11" fill="#64748b">model: hy3</text>
  <text x="780" y="512" text-anchor="middle" font-family="monospace" font-size="11" fill="#64748b">auth: TokenHub API Key</text>
</svg>
